<?xml version="1.0" encoding="UTF-8" standalone="no"?>
<svg
   xmlns:dc="http://purl.org/dc/elements/1.1/"
   xmlns:cc="http://web.resource.org/cc/"
   xmlns:rdf="http://www.w3.org/1999/02/22-rdf-syntax-ns#"
   xmlns:svg="http://www.w3.org/2000/svg"
   xmlns="http://www.w3.org/2000/svg"
   xmlns:sodipodi="http://sodipodi.sourceforge.net/DTD/sodipodi-0.dtd"
   xmlns:inkscape="http://www.inkscape.org/namespaces/inkscape"
   version="1.0"
   width="79.71127"
   height="69.0448"
   viewBox="0 0 468 344"
   preserveAspectRatio="xMidYMid meet"
   id="svg2178"
   sodipodi:version="0.32"
   inkscape:version="0.45"
   sodipodi:docname="rain.svg"
   sodipodi:docbase="/home/varun/Desktop"
   inkscape:output_extension="org.inkscape.output.svg.inkscape"
   sodipodi:modified="true">
  <defs
     id="defs2201" />
  <sodipodi:namedview
     inkscape:window-height="709"
     inkscape:window-width="884"
     inkscape:pageshadow="2"
     inkscape:pageopacity="0.0"
     guidetolerance="10.0"
     gridtolerance="10.0"
     objecttolerance="10.0"
     borderopacity="1.0"
     bordercolor="#666666"
     pagecolor="#ffffff"
     id="base"
     inkscape:zoom="0.87674419"
     inkscape:cx="292.5"
     inkscape:cy="215"
     inkscape:window-x="427"
     inkscape:window-y="102"
     inkscape:current-layer="svg2178"
     width="100px"
     height="430px" />
  <metadata
     id="metadata2180">
Created by potrace 1.7, written by Peter Selinger 2001-2005
<rdf:RDF>
  <cc:Work
     rdf:about="">
    <dc:format>image/svg+xml</dc:format>
    <dc:type
       rdf:resource="http://purl.org/dc/dcmitype/StillImage" />
  </cc:Work>
</rdf:RDF>
</metadata>
  <g
     transform="matrix(0.4011756,0,0,-0.4158984,-220.57643,399.21568)"
     id="g2182"
     style="fill:#000000;stroke:none">
    <path
       d="M 964,940 C 904,910 871,870 862,819 C 855,776 853,775 812,769 C 756,762 720,733 701,682 C 687,644 687,636 701,598 C 712,570 728,549 749,536 C 779,519 805,518 1157,519 C 1568,521 1575,522 1605,580 C 1627,622 1624,641 1589,683 C 1565,713 1552,720 1524,720 C 1492,720 1490,722 1490,753 C 1490,805 1445,842 1375,848 C 1342,851 1307,847 1288,839 C 1262,828 1256,828 1252,839 C 1243,866 1174,933 1143,947 C 1095,967 1012,963 964,940 z "
       id="path2184" />
    <path
       d="M 1453,434 C 1406,395 1400,372 1429,346 C 1453,324 1483,337 1505,380 C 1523,415 1525,470 1508,470 C 1501,470 1476,454 1453,434 z "
       id="path2186" />
    <path
       d="M 773,417 C 726,382 719,353 749,326 C 767,310 770,310 793,324 C 822,344 840,380 840,420 C 840,458 825,458 773,417 z "
       id="path2188" />
    <path
       d="M 1233,414 C 1187,376 1181,357 1206,329 C 1239,293 1300,356 1300,426 C 1300,459 1282,456 1233,414 z "
       id="path2190" />
    <path
       d="M 993,394 C 946,355 940,332 969,306 C 987,290 990,290 1013,305 C 1040,322 1060,366 1060,406 C 1060,439 1042,436 993,394 z "
       id="path2192" />
    <path
       d="M 1316,279 C 1266,234 1259,213 1290,185 C 1307,169 1314,169 1334,179 C 1356,191 1370,224 1385,293 C 1393,332 1372,328 1316,279 z "
       id="path2194" />
    <path
       d="M 1076,259 C 1026,214 1019,193 1050,165 C 1067,149 1074,149 1094,159 C 1116,171 1130,204 1145,273 C 1153,312 1132,308 1076,259 z "
       id="path2196" />
    <path
       d="M 818,225 C 763,185 753,145 791,121 C 833,95 871,137 883,223 C 890,270 879,270 818,225 z "
       id="path2198" />
  </g>
</svg>
